<svg width="40" height="40" viewBox="0 0 40 40" fill="none" xmlns="http://www.w3.org/2000/svg">
<path opacity="0.2" d="M6.25 13.75H33.75V7.5C33.75 7.16848 33.6183 6.85054 33.3839 6.61612C33.1495 6.3817 32.8315 6.25 32.5 6.25H7.5C7.16848 6.25 6.85054 6.3817 6.61612 6.61612C6.3817 6.85054 6.25 7.16848 6.25 7.5V13.75Z" fill="#1C1C1C"/>
<path d="M32.5 6.25H7.5C6.80964 6.25 6.25 6.80964 6.25 7.5V32.5C6.25 33.1904 6.80964 33.75 7.5 33.75H32.5C33.1904 33.75 33.75 33.1904 33.75 32.5V7.5C33.75 6.80964 33.1904 6.25 32.5 6.25Z" stroke="#1C1C1C" stroke-width="1.5" stroke-linecap="round" stroke-linejoin="round"/>
<path d="M27.5 3.75V8.75" stroke="#1C1C1C" stroke-width="1.5" stroke-linecap="round" stroke-linejoin="round"/>
<path d="M12.5 3.75V8.75" stroke="#1C1C1C" stroke-width="1.5" stroke-linecap="round" stroke-linejoin="round"/>
<path d="M6.25 13.75H33.75" stroke="#1C1C1C" stroke-width="1.5" stroke-linecap="round" stroke-linejoin="round"/>
<path d="M14.375 20H18.75L16.25 23.125C16.6614 23.1243 17.0667 23.2251 17.4298 23.4186C17.7929 23.6121 18.1027 23.8922 18.3316 24.234C18.5605 24.5759 18.7015 24.969 18.7421 25.3784C18.7827 25.7879 18.7216 26.201 18.5642 26.5811C18.4069 26.9613 18.1581 27.2967 17.84 27.5577C17.522 27.8187 17.1444 27.9971 16.7408 28.0772C16.3373 28.1573 15.9202 28.1365 15.5265 28.0167C15.1329 27.897 14.775 27.6819 14.4844 27.3906" stroke="#1C1C1C" stroke-width="1.5" stroke-linecap="round" stroke-linejoin="round"/>
<path d="M22.5 21.875L25 20V28.125" stroke="#1C1C1C" stroke-width="1.5" stroke-linecap="round" stroke-linejoin="round"/>
</svg>
