<svg width="40" height="40" viewBox="0 0 40 40" fill="none" xmlns="http://www.w3.org/2000/svg">
<path opacity="0.2" d="M12.5 22.5V28.75C12.5 29.0815 12.6317 29.3995 12.8661 29.6339C13.1005 29.8683 13.4185 30 13.75 30H28.8125L35 35V15C35 14.6685 34.8683 14.3505 34.6339 14.1161C34.3995 13.8817 34.0815 13.75 33.75 13.75H27.5V21.25C27.5 21.5815 27.3683 21.8995 27.1339 22.1339C26.8995 22.3683 26.5815 22.5 26.25 22.5H12.5Z" fill="#1C1C1C"/>
<path d="M11.1875 22.5L5 27.5V7.5C5 7.16848 5.1317 6.85054 5.36612 6.61612C5.60054 6.3817 5.91848 6.25 6.25 6.25H26.25C26.5815 6.25 26.8995 6.3817 27.1339 6.61612C27.3683 6.85054 27.5 7.16848 27.5 7.5V21.25C27.5 21.5815 27.3683 21.8995 27.1339 22.1339C26.8995 22.3683 26.5815 22.5 26.25 22.5H11.1875Z" stroke="#1C1C1C" stroke-width="1.5" stroke-linecap="round" stroke-linejoin="round"/>
<path d="M12.5 22.5V28.75C12.5 29.0815 12.6317 29.3995 12.8661 29.6339C13.1005 29.8683 13.4185 30 13.75 30H28.8125L35 35V15C35 14.6685 34.8683 14.3505 34.6339 14.1161C34.3995 13.8817 34.0815 13.75 33.75 13.75H27.5" stroke="#1C1C1C" stroke-width="1.5" stroke-linecap="round" stroke-linejoin="round"/>
</svg>
