<svg width="71" height="64" viewBox="0 0 71 64" fill="none" xmlns="http://www.w3.org/2000/svg">
<path fill-rule="evenodd" clip-rule="evenodd" d="M0.395843 61.1447C0.395843 61.1447 -2.25313 25.8041 17.1726 9.86324C36.5981 -6.07754 70.7422 3.41787 70.7422 3.41787C70.7422 3.41787 73.391 38.7586 53.9655 54.6994C34.5398 70.6403 0.395843 61.1447 0.395843 61.1447ZM19.5158 45.4548C12.1237 36.4467 13.3182 23.2463 22.1844 15.9707C31.0505 8.69501 44.2303 10.0997 51.6224 19.1078C59.0145 28.1158 57.8199 41.3163 48.9537 48.592C40.0875 55.8676 26.9079 54.4628 19.5158 45.4548ZM27.8992 22.9348C22.8186 27.104 22.134 34.6683 26.3699 39.8302C30.6058 44.9921 38.1582 45.797 43.2388 41.6278C48.3195 37.4586 49.004 29.8943 44.7681 24.7324C40.5323 19.5706 32.9799 18.7656 27.8992 22.9348Z" fill="#FF006B"/>
</svg>
