<svg width="144" height="158" viewBox="0 0 144 158" fill="none" xmlns="http://www.w3.org/2000/svg">
<path fill-rule="evenodd" clip-rule="evenodd" d="M111.273 78.8965C173.413 90.7904 132.281 161.156 91.4465 113.365C111.986 172.874 30.664 172.631 51.683 113.301C10.332 161.348 -29.8589 90.7385 31.9949 79.2002C-30.1451 67.3065 10.5545 -2.8103 51.8211 44.7316C30.6007 -14.9595 111.923 -14.7164 91.5853 44.7956C132.255 -3.43359 173.127 67.358 111.273 78.8965ZM79.2818 74.3448C81.7742 78.6617 80.5624 84.5408 76.2444 87.0339C71.9263 89.5269 65.7969 87.8862 63.3045 83.5693C60.8124 79.2529 62.7051 73.5554 67.0232 71.0624C71.3413 68.5694 76.7898 70.0284 79.2818 74.3448Z" fill="#EB5757"/>
</svg>
