<svg width="1440" height="138" viewBox="0 0 1440 138" fill="none" xmlns="http://www.w3.org/2000/svg">
<path d="M1378.35 178.698C1367.87 178.698 1359.39 176.619 1352.9 172.459C1346.41 168.299 1343.16 162.393 1343.16 154.739C1343.16 150.745 1344.58 147.251 1347.41 144.256C1350.24 141.261 1353.9 139.764 1358.39 139.764C1366.71 139.764 1371.87 144.839 1373.86 154.988L1375.36 161.977C1376.19 165.471 1377.19 168.299 1378.35 170.462C1379.69 172.625 1382.18 173.707 1385.84 173.707C1390 173.707 1393.66 171.96 1396.82 168.466C1399.99 164.972 1401.57 160.146 1401.57 153.99C1401.57 149.331 1400.07 144.839 1397.07 140.513C1394.24 136.187 1389.42 131.445 1382.6 126.287C1375.78 120.962 1370.29 115.472 1366.13 109.814C1361.97 103.991 1359.89 97.0858 1359.89 89.0992C1359.89 82.111 1361.63 75.7883 1365.13 70.1312C1368.79 64.3076 1374.03 59.732 1380.85 56.4043C1387.67 52.9101 1395.74 51.1631 1405.06 51.1631C1415.87 51.1631 1424.36 53.3261 1430.52 57.6522C1436.84 61.9782 1440 67.5522 1440 74.374C1440 78.0345 1438.92 81.1127 1436.76 83.6085C1434.59 85.9379 1431.35 87.1026 1427.02 87.1026C1419.04 87.1026 1413.63 82.2774 1410.8 72.627L1408.3 65.6387C1407.47 62.311 1406.47 59.9816 1405.31 58.6505C1404.14 57.3194 1402.31 56.6538 1399.82 56.6538C1397.16 56.6538 1394.41 58.1513 1391.58 61.1463C1388.75 63.9749 1387.34 68.5505 1387.34 74.8732C1387.34 80.8631 1389.09 86.3538 1392.58 91.3454C1396.24 96.1707 1401.65 101.245 1408.8 106.57C1416.12 112.061 1421.45 117.385 1424.78 122.543C1428.27 127.701 1430.02 133.94 1430.02 141.261C1430.02 148.083 1428.02 154.323 1424.03 159.98C1420.03 165.637 1414.21 170.213 1406.56 173.707C1398.9 177.035 1389.5 178.698 1378.35 178.698Z" fill="black"/>
<path d="M1225.75 176.952L1222.51 174.207L1244.97 66.1387C1246.13 60.3152 1247.3 54.5748 1248.46 48.9177C1249.63 43.2605 1250.71 37.5202 1251.71 31.6967C1252.71 24.7084 1250.04 20.1328 1243.72 17.9698L1239.48 16.2227L1239.98 13.9765L1287.9 0L1289.64 1.74707L1264.69 121.545C1262.52 131.695 1260.61 140.929 1258.95 149.249C1257.45 157.402 1255.95 165.971 1254.45 174.956L1225.75 176.952ZM1293.39 174.956C1291.06 172.626 1288.9 169.049 1286.9 164.224C1284.9 159.398 1282.99 154.656 1281.16 149.998L1267.18 111.562L1329.33 52.6614C1333.82 52.8278 1337.65 54.242 1340.81 56.9042C1343.97 59.5664 1345.55 63.3101 1345.55 68.1353C1345.55 72.4614 1343.8 76.1219 1340.31 79.1169C1336.82 81.9454 1332.32 84.6908 1326.83 87.353L1277.17 110.814L1321.84 162.227C1323.67 164.224 1325.33 165.887 1326.83 167.219C1328.33 168.55 1330.16 169.881 1332.32 171.212L1334.32 172.46L1333.82 174.956H1293.39Z" fill="black"/>
<path d="M1115.76 178.695C1111.1 178.695 1106.69 177.614 1102.53 175.451C1098.37 173.288 1094.96 169.71 1092.3 164.719C1089.8 159.727 1088.56 153.155 1088.56 145.002C1088.56 136.183 1090.3 127.365 1093.8 118.546C1097.29 109.562 1101.95 101.076 1107.77 93.0893C1113.6 84.9364 1120.09 77.7817 1127.24 71.6254C1134.4 65.3027 1141.8 60.3111 1149.45 56.6506C1157.11 52.9901 1164.35 51.1599 1171.17 51.1599C1174.5 51.1599 1177.57 51.8254 1180.4 53.1565C1183.4 54.3212 1186.23 55.9851 1188.89 58.1481L1209.1 50.4111L1211.1 51.659L1189.39 147.248C1188.22 151.907 1187.64 155.734 1187.64 158.729C1187.64 162.223 1189.22 163.97 1192.38 163.97C1194.71 163.97 1197.37 162.888 1200.37 160.725C1203.53 158.562 1207.11 155.651 1211.1 151.99L1213.1 153.987C1210.6 157.98 1207.44 161.89 1203.61 165.717C1199.95 169.378 1195.79 172.456 1191.13 174.951C1186.64 177.447 1181.82 178.695 1176.66 178.695C1171 178.695 1166.43 177.031 1162.93 173.704C1159.44 170.209 1157.69 164.885 1157.69 157.73C1157.69 155.401 1157.77 153.155 1157.94 150.992C1151.28 158.479 1144.21 164.968 1136.73 170.459C1129.4 175.95 1122.42 178.695 1115.76 178.695ZM1118.01 133.771C1118.01 142.589 1119.42 148.995 1122.25 152.988C1125.24 156.815 1129.15 158.729 1133.98 158.729C1137.97 158.729 1141.97 157.481 1145.96 154.985C1149.95 152.489 1154.28 148.912 1158.94 144.253C1159.27 142.257 1159.69 140.177 1160.19 138.014L1175.91 66.1347C1173.75 63.4725 1171.17 61.6422 1168.17 60.6439C1165.18 59.6456 1162.52 59.1464 1160.19 59.1464C1153.03 59.1464 1145.54 63.3893 1137.72 71.875C1131.57 78.6968 1126.74 87.6817 1123.25 98.8296C1119.75 109.978 1118.01 121.625 1118.01 133.771Z" fill="black"/>
<path d="M1020.11 178.698C1007.63 178.698 997.484 174.622 989.664 166.469C981.844 158.316 977.934 146.752 977.934 131.777C977.934 121.129 979.764 110.979 983.424 101.329C987.085 91.6782 992.16 83.1093 998.649 75.6219C1005.3 67.9681 1012.96 61.9782 1021.61 57.6522C1030.26 53.3261 1039.66 51.1631 1049.81 51.1631C1060.29 51.1631 1068.28 53.5757 1073.77 58.4009C1079.43 63.0597 1082.26 69.2992 1082.26 77.1194C1082.26 83.6085 1079.18 90.0143 1073.02 96.337C1067.03 102.66 1058.55 108.4 1047.57 113.558C1036.58 118.55 1023.69 122.377 1008.88 125.039C1009.05 136.519 1011.54 144.922 1016.37 150.246C1021.19 155.571 1027.85 158.233 1036.34 158.233C1043.49 158.233 1050.06 156.319 1056.05 152.493C1062.04 148.499 1067.12 143.84 1071.28 138.516L1073.77 140.263C1070.44 146.752 1066.12 152.908 1060.79 158.732C1055.64 164.556 1049.65 169.381 1042.82 173.208C1036 176.868 1028.43 178.698 1020.11 178.698ZM1048.07 57.9017C1044.24 57.9017 1040.08 59.5656 1035.59 62.8933C1031.26 66.2211 1027.1 70.7967 1023.11 76.6202C1019.28 82.2774 1016.04 88.8496 1013.37 96.337C1010.88 103.658 1009.38 111.478 1008.88 119.798C1027.18 114.806 1040.16 108.234 1047.82 100.081C1055.64 91.9278 1059.55 82.6933 1059.55 72.3774C1059.55 67.3858 1058.46 63.7253 1056.3 61.3959C1054.14 59.0665 1051.39 57.9017 1048.07 57.9017Z" fill="black"/>
<path d="M877.492 176.702L874.996 174.955L893.964 83.609C894.796 79.283 894.547 76.1216 893.215 74.125C891.884 71.962 889.638 70.2149 886.477 68.8838L882.733 67.1368L883.232 64.641L926.659 50.9141L929.155 53.1603L922.416 94.341C925.91 86.3544 929.987 79.1166 934.646 72.6275C939.305 66.1384 944.213 60.9804 949.371 57.1536C954.529 53.1603 959.687 51.1636 964.845 51.1636C970.003 51.1636 974.163 52.5779 977.324 55.4065C980.485 58.0687 982.066 61.646 982.066 66.1384C982.066 70.7973 980.652 74.6241 977.823 77.6191C975.161 80.6141 971.5 82.1116 966.842 82.1116C963.181 82.1116 959.687 81.1964 956.359 79.3662C953.031 77.3695 949.787 74.541 946.626 70.8805C940.802 75.2065 935.81 80.8637 931.651 87.8519C927.491 94.6737 923.664 102.161 920.17 110.314L917.674 121.795C915.844 130.613 914.097 139.432 912.433 148.25C910.769 157.069 909.105 165.97 907.442 174.955L877.492 176.702Z" fill="black"/>
<path d="M739.768 174.954L740.267 172.458L745.758 170.212C751.248 167.883 754.576 163.889 755.741 158.232L768.968 87.6012C770.632 78.7827 772.379 69.0491 774.21 58.4004C776.04 47.5852 777.787 37.3525 779.451 27.702C780.616 21.0466 778.037 16.4709 771.714 13.9751L769.218 12.7272L769.717 10.2314H885.023L878.035 53.6583H875.539L870.048 32.4441C868.218 26.1214 865.639 21.7121 862.311 19.2163C858.984 16.5541 853.909 15.223 847.087 15.223H816.389L802.662 87.6012H821.38C826.039 87.6012 829.866 86.8525 832.861 85.355C836.022 83.6911 838.934 81.0289 841.596 77.3684L851.33 64.6399H853.826L844.092 116.802H841.596L837.603 105.571C836.105 101.079 834.109 97.834 831.613 95.8374C829.284 93.6743 825.706 92.5928 820.881 92.5928H801.663C800.499 98.7491 799.168 105.654 797.67 113.308C796.339 120.795 795.008 128.449 793.677 136.269C792.346 143.923 791.098 151.078 789.933 157.733C788.935 163.889 791.264 168.049 796.921 170.212L802.911 172.458L802.412 174.954H739.768Z" fill="black"/>
<path d="M612.553 176.702L610.307 174.955L629.524 83.1099C631.022 76.6208 628.692 71.962 622.536 69.1334L618.293 67.1368L618.543 64.641L664.965 50.9141L667.211 52.9107L661.471 83.1099C670.123 73.2931 678.941 65.5561 687.926 59.8989C696.911 54.0754 705.397 51.1636 713.383 51.1636C718.708 51.1636 723.117 52.8275 726.611 56.1552C730.105 59.3166 731.852 64.3082 731.852 71.13C731.852 74.6242 731.519 78.2847 730.854 82.1116C730.188 85.7721 729.356 89.599 728.358 93.5922L715.13 146.753C714.465 149.415 713.966 151.661 713.633 153.491C713.3 155.155 713.134 156.653 713.134 157.984C713.134 161.478 714.548 163.225 717.376 163.225C722.035 163.225 727.942 159.481 735.097 151.994L737.592 154.49C733.433 160.646 727.942 166.22 721.12 171.212C714.298 176.203 706.728 178.699 698.408 178.699C692.918 178.699 688.675 177.451 685.68 174.955C682.685 172.293 681.187 168.633 681.187 163.974C681.187 160.48 681.603 156.902 682.435 153.242C683.267 149.415 684.182 145.505 685.181 141.512L694.914 102.577C696.245 97.2527 697.327 92.5107 698.159 88.3511C698.991 84.1914 699.407 80.3645 699.407 76.8704C699.407 73.8754 698.741 71.7956 697.41 70.6309C696.079 69.2998 694.249 68.6342 691.919 68.6342C687.926 68.6342 683.184 70.3813 677.693 73.8754C672.369 77.3695 666.462 82.8603 659.973 90.3477L652.985 121.795C651.155 130.613 649.407 139.432 647.744 148.25C646.08 157.069 644.416 165.97 642.752 174.955L612.553 176.702Z" fill="black"/>
<path d="M453.003 177.198L450.756 175.201C449.092 157.231 447.345 140.509 445.515 125.036C443.851 109.562 442.104 94.5868 440.274 80.1111C439.941 76.617 439.192 74.2876 438.028 73.1229C437.029 71.9582 435.698 71.3758 434.034 71.3758C432.371 71.3758 430.457 72.1246 428.294 73.6221C426.131 74.9531 423.885 76.7834 421.555 79.1128L418.561 76.1179C424.384 67.7985 430.041 61.559 435.532 57.3994C441.189 53.2397 446.846 51.1599 452.503 51.1599C458.826 51.1599 463.485 52.9069 466.48 56.401C469.641 59.8952 471.472 65.4691 471.971 73.1229C472.969 83.7716 473.884 95.6683 474.716 108.813C475.714 121.791 476.546 134.686 477.212 147.498C484.866 133.521 492.519 118.879 500.173 103.572C507.827 88.0977 515.647 72.291 523.634 56.1515H538.858C539.524 60.9767 540.272 67.4657 541.104 75.6187C541.936 83.7716 542.685 92.5901 543.351 102.074C544.182 111.558 545.014 120.876 545.846 130.027C546.678 139.012 547.427 146.832 548.093 153.488C553.916 146 559.074 139.178 563.566 133.022C568.225 126.866 572.884 119.961 577.543 112.307C580.205 107.981 581.952 103.655 582.784 99.3288C583.616 95.0027 583.2 90.7599 581.536 86.6002L577.293 75.6187C574.798 68.7968 575.047 62.8901 578.042 57.8985C581.203 52.9069 585.53 50.4111 591.02 50.4111C596.345 50.4111 600.255 52.1582 602.751 55.6523C605.413 58.98 606.744 63.3061 606.744 68.6305C606.744 72.4573 605.829 76.617 603.998 81.1095C602.335 85.4355 599.256 91.5918 594.764 99.5784C588.441 110.726 580.288 122.873 570.305 136.017C560.322 149.162 549.091 162.306 536.612 175.451L521.887 177.198L519.64 175.201C518.309 162.223 516.978 149.578 515.647 137.265C514.482 124.952 512.985 111.392 511.155 96.5834C504.998 109.562 498.177 123.039 490.689 137.015C483.368 150.825 476.047 163.637 468.726 175.451L453.003 177.198Z" fill="black"/>
<path d="M336.306 178.698C327.654 178.698 319.75 177.035 312.596 173.707C305.441 170.213 299.784 165.055 295.624 158.233C291.465 151.245 289.385 142.426 289.385 131.777C289.385 121.129 291.132 110.979 294.626 101.329C298.286 91.6782 303.361 83.1093 309.85 75.6219C316.339 67.9681 323.91 61.9782 332.562 57.6522C341.214 53.3261 350.615 51.1631 360.765 51.1631C369.583 51.1631 377.403 52.9101 384.225 56.4043C391.213 59.732 396.704 64.8068 400.697 71.6286C404.857 78.4505 406.937 87.1858 406.937 97.8345C406.937 108.317 405.107 118.466 401.446 128.283C397.952 137.934 392.96 146.586 386.471 154.24C380.149 161.727 372.661 167.717 364.009 172.209C355.523 176.535 346.289 178.698 336.306 178.698ZM339.301 173.707C344.459 173.707 349.118 171.377 353.277 166.719C357.603 161.893 361.347 155.571 364.508 147.751C367.67 139.764 370.082 131.029 371.746 121.545C373.41 111.894 374.242 102.327 374.242 92.8429C374.242 79.0328 372.828 69.4656 369.999 64.1412C367.17 58.8169 363.51 56.1547 359.018 56.1547C353.693 56.1547 348.785 58.4841 344.292 63.1429C339.8 67.8017 335.89 74.0413 332.562 81.8614C329.234 89.6816 326.655 98.3337 324.825 107.818C322.995 117.302 322.08 126.786 322.08 136.27C322.08 150.413 323.744 160.229 327.071 165.72C330.399 171.045 334.476 173.707 339.301 173.707Z" fill="black"/>
<path d="M150.684 176.702L148.438 174.955L167.655 83.1099C169.153 76.6208 166.823 71.962 160.667 69.1334L156.424 67.1368L156.674 64.641L203.096 50.9141L205.342 52.9107L199.601 83.1099C208.253 73.2931 217.072 65.5561 226.057 59.8989C235.042 54.0754 243.527 51.1636 251.514 51.1636C256.838 51.1636 261.248 52.8275 264.742 56.1552C268.236 59.3166 269.983 64.3082 269.983 71.13C269.983 74.6242 269.65 78.2847 268.985 82.1116C268.319 85.7721 267.487 89.599 266.489 93.5922L253.261 146.753C252.596 149.415 252.096 151.661 251.764 153.491C251.431 155.155 251.264 156.653 251.264 157.984C251.264 161.478 252.679 163.225 255.507 163.225C260.166 163.225 266.073 159.481 273.227 151.994L275.723 154.49C271.564 160.646 266.073 166.22 259.251 171.212C252.429 176.203 244.859 178.699 236.539 178.699C231.048 178.699 226.806 177.451 223.811 174.955C220.816 172.293 219.318 168.633 219.318 163.974C219.318 160.48 219.734 156.902 220.566 153.242C221.398 149.415 222.313 145.505 223.311 141.512L233.045 102.577C234.376 97.2527 235.458 92.5107 236.29 88.3511C237.122 84.1914 237.538 80.3645 237.538 76.8704C237.538 73.8754 236.872 71.7956 235.541 70.6309C234.21 69.2998 232.38 68.6342 230.05 68.6342C226.057 68.6342 221.315 70.3813 215.824 73.8754C210.5 77.3695 204.593 82.8603 198.104 90.3477L191.116 121.795C189.285 130.613 187.538 139.432 185.874 148.25C184.211 157.069 182.547 165.97 180.883 174.955L150.684 176.702Z" fill="black"/>
<path d="M78.3378 174.954L78.837 172.458L81.832 171.21C87.4891 168.548 88.8202 164.721 85.8252 159.73L44.395 89.0987L114.277 25.955C116.94 23.6256 118.104 21.2962 117.771 18.9667C117.605 16.6373 116.024 14.8903 113.029 13.7256L110.783 12.7272L111.033 10.2314H150.217L149.718 12.7272L146.972 13.7256C141.315 15.7222 136.573 17.802 132.746 19.9651C129.086 22.1281 125.092 25.123 120.766 28.9499L70.6009 74.3735L122.264 157.983C126.091 164.305 131.249 168.881 137.738 171.71L139.984 172.458L139.485 174.954H78.3378ZM-18 174.954L-17.5008 172.458L-13.258 170.711C-7.43445 168.548 -3.94033 164.305 -2.77562 157.983L10.4521 87.6012C12.2824 78.6163 14.1126 68.6331 15.9429 57.6516C17.7731 46.5037 19.5202 36.1046 21.184 26.4541C22.1824 20.6306 19.9362 16.4709 14.4454 13.9751L11.4504 12.7272L11.9496 10.2314H72.3479L71.8488 12.7272L66.358 14.4743C60.3681 16.6373 56.7908 20.797 55.6261 26.9533L40.9009 107.318C39.5698 114.14 37.9891 122.376 36.1588 132.026C34.495 141.51 32.9143 150.412 31.4168 158.732C30.4185 164.721 32.7479 168.798 38.4051 170.961L42.1488 172.458L41.6496 174.954H-18Z" fill="black"/>
</svg>
