<svg width="25" height="24" viewBox="0 0 25 24" fill="none" xmlns="http://www.w3.org/2000/svg">
<path fill-rule="evenodd" clip-rule="evenodd" d="M20.1681 3H3.84511C3.3979 3 3.0625 3.3354 3.0625 3.78261V20.2174C3.0625 20.5528 3.3979 20.8882 3.84511 20.8882H20.2799C20.7271 20.8882 21.0625 20.5528 21.0625 20.1056V3.78261C20.9507 3.3354 20.6153 3 20.1681 3ZM8.31752 18.2049H5.74609V9.70801H8.42932V18.2049H8.31752ZM7.0867 8.58991C6.19229 8.58991 5.52148 7.8073 5.52148 7.02469C5.52148 6.13028 6.19229 5.45947 7.0867 5.45947C7.98111 5.45947 8.65192 6.13028 8.65192 7.02469C8.54012 7.8073 7.86931 8.58991 7.0867 8.58991ZM18.2674 18.205H15.5842V14.0683C15.5842 13.0621 15.5842 11.8323 14.2426 11.8323C12.901 11.8323 12.6774 12.9503 12.6774 14.0683V18.3168H9.99414V9.70808H12.5656V10.8261C12.901 10.1553 13.7954 9.48447 15.0252 9.48447C17.7084 9.48447 18.1556 11.2733 18.1556 13.5093V18.205H18.2674Z" fill="#0273AF"/>
</svg>
