<svg width="24" height="24" viewBox="0 0 24 24" fill="none" xmlns="http://www.w3.org/2000/svg">
<g clip-path="url(#clip0_1636_1216)">
<path d="M0.69347 11.8563C0.692912 13.8728 1.2198 15.8417 2.22166 17.5771L0.597656 23.5066L6.66575 21.9156C8.3441 22.8292 10.2246 23.308 12.1355 23.3081H12.1405C18.4489 23.3081 23.5841 18.1748 23.5868 11.8653C23.588 8.80792 22.3984 5.93295 20.2371 3.76997C18.0762 1.60718 15.2022 0.415458 12.1401 0.414062C5.83096 0.414062 0.696168 5.54709 0.693563 11.8563" fill="url(#paint0_linear_1636_1216)"/>
<path d="M0.285082 11.8527C0.284431 13.9417 0.830198 15.981 1.86778 17.7786L0.185547 23.9207L6.47122 22.2726C8.20313 23.2168 10.1531 23.7147 12.1373 23.7154H12.1424C18.6771 23.7154 23.9967 18.3975 23.9995 11.8621C24.0006 8.69488 22.7682 5.71656 20.5297 3.47609C18.2909 1.23591 15.3142 0.00130233 12.1424 0C5.60657 0 0.287686 5.31721 0.285082 11.8527ZM4.02843 17.469L3.79373 17.0965C2.80713 15.5277 2.28638 13.7149 2.28713 11.8534C2.28917 6.4213 6.71001 2.00186 12.1461 2.00186C14.7787 2.00298 17.2527 3.02921 19.1135 4.89116C20.9743 6.7533 21.9982 9.22865 21.9975 11.8614C21.9951 17.2935 17.5742 21.7135 12.1424 21.7135H12.1385C10.3698 21.7126 8.63522 21.2376 7.12248 20.34L6.76248 20.1265L3.03243 21.1045L4.02843 17.469Z" fill="url(#paint1_linear_1636_1216)"/>
<path d="M9.17858 6.89771C8.95663 6.4044 8.72305 6.39445 8.51198 6.3858C8.33914 6.37836 8.14156 6.37892 7.94416 6.37892C7.74658 6.37892 7.42556 6.45324 7.15421 6.74952C6.88258 7.04608 6.11719 7.76273 6.11719 9.22031C6.11719 10.678 7.17886 12.0866 7.32686 12.2845C7.47505 12.482 9.37644 15.5689 12.3878 16.7564C14.8905 17.7433 15.3998 17.547 15.943 17.4975C16.4862 17.4482 17.6959 16.7811 17.9427 16.0892C18.1897 15.3975 18.1897 14.8046 18.1156 14.6807C18.0416 14.5572 17.844 14.4831 17.5477 14.335C17.2513 14.1868 15.7948 13.4701 15.5232 13.3712C15.2516 13.2724 15.0541 13.2231 14.8565 13.5198C14.659 13.8159 14.0916 14.4831 13.9187 14.6807C13.7459 14.8787 13.573 14.9034 13.2768 14.7552C12.9803 14.6065 12.0262 14.2941 10.8942 13.2849C10.0135 12.4996 9.41886 11.5298 9.24602 11.2331C9.07319 10.937 9.22751 10.7764 9.37607 10.6288C9.50919 10.496 9.67244 10.2828 9.82072 10.1099C9.96844 9.93687 10.0177 9.81343 10.1165 9.61585C10.2154 9.41808 10.1659 9.24506 10.092 9.09687C10.0177 8.94868 9.44202 7.48347 9.17858 6.89771Z" fill="white"/>
</g>
<defs>
<linearGradient id="paint0_linear_1636_1216" x1="1150.05" y1="2309.67" x2="1150.05" y2="0.414062" gradientUnits="userSpaceOnUse">
<stop stop-color="#1FAF38"/>
<stop offset="1" stop-color="#60D669"/>
</linearGradient>
<linearGradient id="paint1_linear_1636_1216" x1="1190.88" y1="2392.07" x2="1190.88" y2="0" gradientUnits="userSpaceOnUse">
<stop stop-color="#F9F9F9"/>
<stop offset="1" stop-color="white"/>
</linearGradient>
<clipPath id="clip0_1636_1216">
<rect width="23.814" height="24" fill="white" transform="translate(0.185547)"/>
</clipPath>
</defs>
</svg>
