<svg width="24" height="24" viewBox="0 0 24 24" fill="none" xmlns="http://www.w3.org/2000/svg">
<path d="M22 12C22 7.87 18.63 4.5 14.5 4.5L9.5 4.5C5.37 4.5 2 7.87 2 12C2 16.13 5.37 19.5 9.5 19.5L14.5 19.5C18.63 19.5 22 16.13 22 12Z" stroke="black" stroke-opacity="0.3" stroke-width="1.5" stroke-linecap="round" stroke-linejoin="round"/>
<path d="M11 12C11 12.83 10.33 13.5 9.5 13.5L7.5 13.5C6.67 13.5 6 12.83 6 12C6 11.18 6.67 10.5 7.5 10.5L9.5 10.5C10.33 10.5 11 11.18 11 12Z" stroke="black" stroke-opacity="0.3" stroke-width="1.5" stroke-linecap="round" stroke-linejoin="round"/>
<path d="M6 12L2 12" stroke="black" stroke-opacity="0.3" stroke-width="1.5" stroke-linecap="round" stroke-linejoin="round"/>
</svg>
