<svg width="40" height="40" viewBox="0 0 40 40" fill="none" xmlns="http://www.w3.org/2000/svg">
<path opacity="0.2" d="M25 6.25C25.8114 7.33185 26.25 8.64769 26.25 10V11.25H13.75V10C13.75 8.64769 14.1886 7.33185 15 6.25H8.75C8.41848 6.25 8.10054 6.3817 7.86612 6.61612C7.6317 6.85054 7.5 7.16848 7.5 7.5V33.75C7.5 34.0815 7.6317 34.3995 7.86612 34.6339C8.10054 34.8683 8.41848 35 8.75 35H31.25C31.5815 35 31.8995 34.8683 32.1339 34.6339C32.3683 34.3995 32.5 34.0815 32.5 33.75V7.5C32.5 7.16848 32.3683 6.85054 32.1339 6.61612C31.8995 6.3817 31.5815 6.25 31.25 6.25H25Z" fill="#1C1C1C"/>
<path d="M15 23.75H25" stroke="#1C1C1C" stroke-width="1.5" stroke-linecap="round" stroke-linejoin="round"/>
<path d="M15 18.75H25" stroke="#1C1C1C" stroke-width="1.5" stroke-linecap="round" stroke-linejoin="round"/>
<path d="M25 6.25H31.25C31.5815 6.25 31.8995 6.3817 32.1339 6.61612C32.3683 6.85054 32.5 7.16848 32.5 7.5V33.75C32.5 34.0815 32.3683 34.3995 32.1339 34.6339C31.8995 34.8683 31.5815 35 31.25 35H8.75C8.41848 35 8.10054 34.8683 7.86612 34.6339C7.6317 34.3995 7.5 34.0815 7.5 33.75V7.5C7.5 7.16848 7.6317 6.85054 7.86612 6.61612C8.10054 6.3817 8.41848 6.25 8.75 6.25H15" stroke="#1C1C1C" stroke-width="1.5" stroke-linecap="round" stroke-linejoin="round"/>
<path d="M13.75 11.25V10C13.75 8.3424 14.4085 6.75269 15.5806 5.58058C16.7527 4.40848 18.3424 3.75 20 3.75C21.6576 3.75 23.2473 4.40848 24.4194 5.58058C25.5915 6.75269 26.25 8.3424 26.25 10V11.25H13.75Z" stroke="#1C1C1C" stroke-width="1.5" stroke-linecap="round" stroke-linejoin="round"/>
</svg>
