<svg width="147" height="147" viewBox="0 0 147 147" fill="none" xmlns="http://www.w3.org/2000/svg">
<path fill-rule="evenodd" clip-rule="evenodd" d="M145.113 58.3767C153.603 97.7896 128.536 136.622 89.1234 145.113C49.7108 153.604 10.8777 128.536 2.38711 89.1236C-6.10341 49.711 18.9639 10.8778 58.3765 2.38731C97.7894 -6.10326 136.622 18.9641 145.113 58.3767ZM52.101 65.6918C58.8153 64.2454 63.0861 57.6292 61.6396 50.9142C60.1931 44.1999 53.5769 39.9289 46.8625 41.3754C40.1476 42.8219 35.8768 49.4383 37.3232 56.1526C38.7698 62.8676 45.386 67.1384 52.101 65.6918ZM90.1607 57.4928C96.8757 56.0462 101.147 49.43 99.7 42.715C98.2535 36.0007 91.6373 31.7297 84.9223 33.1763C78.208 34.6227 73.9372 41.2391 75.3836 47.9534C76.8302 54.6684 83.4464 58.9392 90.1607 57.4928ZM79.6307 98.4812C63.2821 102.003 47.1734 91.6047 43.6514 75.2561L30.9646 77.9892C35.996 101.344 59.0086 116.2 82.3638 111.168C105.72 106.137 120.574 83.1241 115.543 59.7688L102.856 62.5019C106.378 78.8505 95.98 94.9591 79.6307 98.4812Z" fill="#DC5B27"/>
</svg>
