<svg width="120" height="24" viewBox="0 0 120 24" fill="none" xmlns="http://www.w3.org/2000/svg">
<rect width="24" height="24" fill="#FFCC00"/>
<path d="M5.825 22L7.45 14.975L2 10.25L9.2 9.625L12 3L14.8 9.625L22 10.25L16.55 14.975L18.175 22L12 18.275L5.825 22Z" fill="#1D1B20"/>
<rect width="24" height="24" transform="translate(24)" fill="#FFCC00"/>
<path d="M29.825 22L31.45 14.975L26 10.25L33.2 9.625L36 3L38.8 9.625L46 10.25L40.55 14.975L42.175 22L36 18.275L29.825 22Z" fill="#1D1B20"/>
<rect width="24" height="24" transform="translate(48)" fill="#FFCC00"/>
<path d="M53.825 22L55.45 14.975L50 10.25L57.2 9.625L60 3L62.8 9.625L70 10.25L64.55 14.975L66.175 22L60 18.275L53.825 22Z" fill="#1D1B20"/>
<rect width="24" height="24" transform="translate(72)" fill="#FFCC00"/>
<path d="M77.825 22L79.45 14.975L74 10.25L81.2 9.625L84 3L86.8 9.625L94 10.25L88.55 14.975L90.175 22L84 18.275L77.825 22Z" fill="#1D1B20"/>
<path d="M101.825 22L103.45 14.975L98 10.25L105.2 9.625L108 3L110.8 9.625L118 10.25L112.55 14.975L114.175 22L108 18.275L101.825 22Z" fill="#1D1B20"/>
</svg>
