<svg width="238" height="204" viewBox="0 0 238 204" fill="none" xmlns="http://www.w3.org/2000/svg">
<path d="M86.48 111.424L88.4 111.488C88.656 110.592 89.232 108.885 90.128 106.368C91.0667 103.851 91.728 102.187 92.112 101.376C87.6747 105.557 84.24 108.075 81.808 108.928C80.4853 109.397 79.1413 109.632 77.776 109.632C75.5147 109.632 73.7653 108.885 72.528 107.392C71.2907 105.899 70.672 103.808 70.672 101.12C70.672 97.28 72.4427 92.16 75.984 85.76C79.5253 79.3173 83.5573 74.2827 88.08 70.656L90.64 73.024C81.168 83.2213 76.432 91.7333 76.432 98.56C76.432 102.528 77.9893 104.512 81.104 104.512C84.2187 104.512 87.248 102.805 90.192 99.392C93.136 95.9787 96.1867 90.688 99.344 83.52C100.624 80.576 101.605 78.6347 102.288 77.696C102.971 76.7573 103.632 76.288 104.272 76.288C104.912 76.288 105.403 76.48 105.744 76.864C106.128 77.248 106.32 77.76 106.32 78.4C106.32 81.1307 104.357 85.184 100.432 90.56C97.7013 96.192 94.9493 103.189 92.176 111.552C94.1813 111.68 96.3147 112.171 98.576 113.024L97.936 115.2L91.152 114.24C88.6347 120.384 85.584 124.971 82 128C78.4587 131.072 74.2133 132.608 69.264 132.608C66.704 132.608 64.5707 131.904 62.864 130.496C61.1147 129.131 60.24 127.403 60.24 125.312C60.24 121.472 62.8213 118.187 67.984 115.456C73.1467 112.768 79.312 111.424 86.48 111.424ZM72.144 128.192C75.6 128.192 78.6507 126.784 81.296 123.968C83.984 121.195 85.968 117.931 87.248 114.176C81.5307 114.176 76.7307 115.136 72.848 117.056C68.9653 119.019 67.024 121.387 67.024 124.16C67.024 125.355 67.4933 126.315 68.432 127.04C69.4133 127.808 70.6507 128.192 72.144 128.192ZM118.193 92.992C119.302 94.8267 119.857 96.8533 119.857 99.072C119.857 102.528 118.662 105.621 116.273 108.352C113.883 111.04 111.067 112.384 107.825 112.384C105.35 112.384 103.409 111.68 102.001 110.272C100.635 108.821 99.9525 106.837 99.9525 104.32C99.9525 100.267 101.531 96.64 104.689 93.44C107.846 90.1973 111.387 88.576 115.312 88.576C116.038 88.576 116.55 88.5973 116.849 88.64L117.041 90.752C113.627 90.752 110.79 91.7333 108.529 93.696C106.267 95.6587 105.137 98.176 105.137 101.248C105.137 103.083 105.585 104.576 106.481 105.728C107.377 106.837 108.678 107.392 110.385 107.392C112.134 107.392 113.521 106.624 114.545 105.088C115.569 103.552 116.081 101.76 116.081 99.712C116.081 97.6213 115.675 95.7227 114.865 94.016L118.193 92.992ZM146.804 104.96L148.148 106.048C147.423 107.84 146.271 109.355 144.692 110.592C143.156 111.829 141.748 112.448 140.468 112.448C139.231 112.448 138.249 112.021 137.524 111.168C136.799 110.272 136.436 109.12 136.436 107.712C136.436 106.304 136.671 104.491 137.14 102.272C135.135 105.429 132.98 107.904 130.676 109.696C128.372 111.488 126.431 112.384 124.852 112.384C122.463 112.384 121.268 110.677 121.268 107.264C121.268 104.363 122.249 100.651 124.212 96.128C126.175 91.6053 127.604 88.9813 128.5 88.256L131.572 89.6C129.823 92.416 128.5 95.1893 127.604 97.92C126.708 100.651 126.26 102.485 126.26 103.424C126.26 104.32 126.537 105.045 127.092 105.6C127.689 106.155 128.372 106.432 129.14 106.432C130.847 106.432 132.959 104.875 135.476 101.76C138.036 98.6027 140.639 93.9093 143.284 87.68L146.548 89.152C146.463 89.4933 145.481 91.968 143.604 96.576C141.769 101.184 140.852 103.957 140.852 104.896C140.852 105.792 141.044 106.475 141.428 106.944C141.855 107.413 142.26 107.648 142.644 107.648C143.071 107.648 143.391 107.627 143.604 107.584C143.817 107.541 144.031 107.456 144.244 107.328C144.457 107.2 144.628 107.093 144.756 107.008C144.927 106.923 145.119 106.773 145.332 106.56L145.844 106.112C145.929 105.984 146.079 105.792 146.292 105.536C146.548 105.237 146.719 105.045 146.804 104.96ZM167.248 89.344C168.314 89.344 169.189 89.7067 169.872 90.432C170.554 91.1573 170.896 92.096 170.896 93.248C170.896 95.552 169.573 97.984 166.928 100.544L165.392 99.328C165.989 98.0053 166.288 97.0453 166.288 96.448C166.288 95.296 165.648 94.72 164.368 94.72C163.088 94.72 161.872 95.5307 160.72 97.152C159.568 98.7733 158.202 101.291 156.624 104.704C155.088 108.075 153.914 110.464 153.104 111.872L149.456 110.272C151.802 104.939 153.146 101.803 153.488 100.864C154.64 97.536 155.216 93.312 155.216 88.192L158.8 87.232C158.672 90.0053 158.48 92.16 158.224 93.696C157.968 95.1893 157.349 97.6427 156.368 101.056C160.677 93.248 164.304 89.344 167.248 89.344Z" fill="black"/>
<path d="M78.2692 151.428C78.6858 151.483 78.781 151.655 78.5549 151.944C78.3503 152.005 78.2912 151.955 78.3778 151.797C78.4355 151.691 78.3993 151.568 78.2692 151.428C78.0383 151.852 77.8219 152.25 77.6199 152.621C77.43 153.032 77.1341 153.387 76.7323 153.683C71.9445 152.382 67.2313 150.88 62.5926 149.179C57.925 147.531 53.5171 145.405 49.3689 142.803C45.2207 140.201 41.4453 136.977 38.0426 133.132C34.6278 129.246 31.7445 124.447 29.3926 118.735C29.1144 117.038 28.8856 115.281 28.7061 113.466C28.5265 111.651 28.4013 110.019 28.3304 108.572C28.6735 106.87 29.0189 105.1 29.3667 103.262C29.7144 101.425 30.0575 99.7224 30.3958 98.1547C30.1865 98.3498 30.0459 98.7027 29.974 99.2132C29.8492 99.6949 29.7327 100.13 29.6247 100.517C29.473 100.607 29.3851 100.61 29.361 100.528C29.2839 100.418 29.1923 100.333 29.0863 100.276C29.2589 99.2017 29.5109 98.171 29.8425 97.1835C30.1331 96.2081 30.4972 95.2556 30.9347 94.3258C31.0407 94.3835 31.1118 94.4738 31.148 94.5965C31.1842 94.7193 31.2349 94.8156 31.2999 94.8854C31.1147 95.1624 31.009 95.4827 30.9828 95.8463C30.9445 96.169 30.7617 96.3786 30.4343 96.4752C30.4128 96.7039 30.4695 96.8207 30.6043 96.8254C30.6982 96.8422 30.714 96.971 30.6515 97.2118C30.9448 96.547 31.2646 95.8967 31.6108 95.2608C31.9161 94.6369 32.142 93.9698 32.2883 93.2594C32.0596 93.2379 31.9163 93.2801 31.8586 93.3861C31.8009 93.4921 31.6168 93.5464 31.3062 93.549C31.4646 92.8795 31.682 92.2594 31.9585 91.6885C32.182 91.0888 32.5175 90.5672 32.965 90.1239C33.1313 90.3862 33.2014 90.6992 33.1752 91.0628C33.096 91.3975 32.9963 91.7383 32.8762 92.0851C33.1673 91.8658 33.3525 91.5887 33.4317 91.254C33.458 90.8904 33.4288 90.5654 33.3443 90.2789C33.4671 90.2427 33.5178 90.339 33.4963 90.5677C33.66 90.5194 33.7646 90.4218 33.8102 90.2749C33.815 90.1401 33.8197 90.0052 33.8244 89.8704C33.817 89.6946 33.8157 89.5393 33.8204 89.4045C33.8131 89.2287 33.8648 89.1023 33.9755 89.0252C34.168 88.9239 34.268 88.9611 34.2753 89.1369C34.2418 89.3247 34.2575 89.4535 34.3226 89.5233C34.7365 89.2678 34.9204 88.8354 34.8742 88.2263C34.828 87.6171 34.6976 87.0996 34.483 86.6735C34.0113 87.0351 33.6926 87.4627 33.5268 87.9564C33.604 88.0671 33.7099 88.1248 33.8448 88.1295C33.9387 88.1463 34.0182 88.1896 34.0832 88.2594C34.0208 88.5002 33.9259 88.7062 33.7984 88.8772C33.6179 89.0194 33.4435 89.1821 33.275 89.3652C33.2388 89.2424 33.27 89.122 33.3687 89.0039C33.4264 88.8979 33.4901 88.8124 33.5599 88.7474C33.6176 88.6414 33.6753 88.5354 33.733 88.4294C33.7498 88.3355 33.6727 88.2248 33.5016 88.0973C32.1187 90.1955 31.0742 92.4609 30.3681 94.8933C29.609 97.2968 28.809 99.7125 27.9681 102.14C27.7378 103.32 27.5978 104.429 27.548 105.467C27.4452 106.476 27.216 107.433 26.8603 108.339C26.9523 112.271 27.528 115.882 28.5875 119.173C29.6061 122.475 30.9712 125.52 32.6828 128.307C34.3823 131.053 36.367 133.56 38.6369 135.826C40.8538 138.064 43.233 140.098 45.7746 141.928C48.3162 143.759 50.9323 145.389 53.6229 146.82C56.3135 148.251 58.9558 149.518 61.5499 150.621C64.0353 151.356 66.5063 152.117 68.9629 152.905C71.3905 153.746 73.8676 154.528 76.3939 155.251C76.4086 155.602 76.4438 155.948 76.4994 156.287C76.5551 156.627 76.6107 156.966 76.6663 157.306C76.6207 157.453 76.5533 157.45 76.4641 157.299C76.346 157.2 76.2702 157.245 76.2366 157.432C76.1936 157.89 76.3143 158.299 76.5987 158.66C76.3941 158.72 76.3025 158.636 76.324 158.408C76.1918 158.713 76.127 159.022 76.1297 159.332C76.1444 159.684 76.2963 159.973 76.5854 160.199C76.5109 160.399 76.2895 160.553 75.9212 160.662C76.0513 160.801 76.0936 160.944 76.0479 161.091C76.0023 161.238 75.9301 161.371 75.8315 161.489C75.7449 161.648 75.6788 161.801 75.6332 161.948C75.5587 162.147 75.5577 162.37 75.6301 162.616C75.0189 163.107 74.5354 163.806 74.1797 164.712C73.824 165.617 73.5502 166.499 73.3582 167.356C73.4642 167.414 73.5256 167.396 73.5424 167.302C73.5712 167.249 73.6206 167.19 73.6903 167.125C74.0324 167.38 74.3457 167.688 74.6301 168.048C74.9145 168.409 75.2566 168.664 75.6564 168.813C76.8326 167.221 78.134 165.525 79.5605 163.725C80.987 161.925 82.2474 160.241 83.3418 158.673C83.6256 158.278 83.8457 157.969 84.0021 157.744C84.1296 157.573 84.2691 157.443 84.4207 157.354C84.5844 157.306 84.8072 157.307 85.0889 157.357C85.3297 157.42 85.691 157.513 86.1727 157.638C86.6013 157.734 87.1383 157.82 87.7837 157.897C88.4002 158.027 89.0311 158.13 89.6764 158.206C90.3218 158.283 90.9551 158.318 91.5763 158.313C92.2096 158.349 92.7369 158.327 93.1582 158.247C94.0181 158.75 95.0019 158.993 96.1095 158.978C97.2292 159.004 98.2898 158.98 99.2914 158.907C99.7274 159.179 100.189 159.31 100.675 159.3C101.12 159.302 101.601 159.271 102.116 159.208C102.602 159.198 103.068 159.194 103.514 159.196C103.959 159.198 104.379 159.341 104.775 159.625C105.107 159.394 105.495 159.279 105.941 159.281C106.345 159.295 106.756 159.33 107.173 159.385C107.589 159.44 108 159.475 108.404 159.489C108.809 159.503 109.177 159.394 109.509 159.163C110.419 159.384 111.394 159.519 112.431 159.569C113.469 159.619 114.515 159.622 115.57 159.577C116.637 159.574 117.697 159.551 118.752 159.506C119.766 159.474 120.703 159.487 121.565 159.544C121.623 159.438 121.707 159.347 121.818 159.269C121.888 159.204 121.952 159.119 122.009 159.013C122.25 159.075 122.419 159.27 122.515 159.598C123.702 159.248 124.993 159.023 126.387 158.923C127.752 158.876 129.137 158.823 130.544 158.764C131.962 158.747 133.376 158.641 134.787 158.447C136.21 158.294 137.579 157.957 138.893 157.436C139.317 157.667 139.786 157.751 140.302 157.688C140.829 157.666 141.359 157.577 141.891 157.42C142.423 157.263 142.943 157.065 143.45 156.826C143.929 156.64 144.341 156.452 144.685 156.262C145.846 156.275 146.935 156.199 147.954 156.032C148.972 155.865 149.878 155.62 150.673 155.297C150.877 155.236 151.018 155.262 151.095 155.372C151.185 155.524 151.317 155.596 151.493 155.589C151.724 155.165 152.152 154.883 152.778 154.743C153.363 154.614 153.88 154.707 154.328 155.019C154.73 154.723 155.156 154.508 155.606 154.376C156.056 154.243 156.512 154.131 156.974 154.039C157.396 153.959 157.805 153.838 158.202 153.677C158.57 153.568 158.915 153.378 159.235 153.105C159.646 153.295 159.943 153.319 160.123 153.177C160.316 153.076 160.583 153.152 160.925 153.407C161.098 153.089 161.314 152.915 161.571 152.883C161.8 152.905 162.066 152.826 162.369 152.648C162.309 152.443 162.176 152.371 161.972 152.431C161.767 152.492 161.676 152.408 161.697 152.179C161.673 152.097 161.681 152.05 161.722 152.038C161.763 152.026 161.792 151.973 161.809 151.879C162.026 151.86 162.158 151.932 162.206 152.095C162.267 152.3 162.37 152.425 162.517 152.471C162.861 152.28 163.191 152.116 163.506 151.979C163.793 151.894 164.11 151.912 164.456 152.032C164.94 151.712 165.538 151.402 166.251 151.103C166.963 150.804 167.623 150.476 168.229 150.119C168.405 150.112 168.509 150.237 168.54 150.494C168.531 150.764 168.602 150.854 168.753 150.765C169.134 150.697 169.223 150.471 169.02 150.086C169.203 150.254 169.418 150.302 169.663 150.23C169.909 150.157 170.036 149.986 170.046 149.717C170.364 149.89 170.66 149.914 170.934 149.788C171.209 149.663 171.471 149.496 171.721 149.289C171.93 149.094 172.146 148.919 172.367 148.765C172.56 148.664 172.774 148.712 173.01 148.909C173.162 148.82 173.207 148.673 173.147 148.468C173.099 148.305 173.171 148.172 173.364 148.071C173.568 148.01 173.738 147.983 173.873 147.987C174.02 148.033 174.187 148.073 174.375 148.106C174.519 147.841 174.716 147.605 174.967 147.398C175.229 147.232 175.459 147.03 175.656 146.794C176.429 146.7 177.178 146.523 177.902 146.265C178.598 146.06 179.184 145.709 179.66 145.213C180.106 145.215 180.67 145.093 181.354 144.847C182.038 144.601 182.477 144.204 182.671 143.658C182.835 143.609 182.949 143.62 183.014 143.69C183.092 143.801 183.198 143.858 183.332 143.863C183.518 143.586 183.741 143.364 184.004 143.198C184.266 143.032 184.528 142.865 184.791 142.699C185.065 142.573 185.307 142.413 185.516 142.218C185.738 142.064 185.941 141.848 186.126 141.571C186.567 141.708 187.117 141.612 187.777 141.284C188.395 140.969 188.699 140.567 188.689 140.081C188.971 140.131 189.237 140.053 189.487 139.846C189.709 139.691 189.939 139.49 190.177 139.242C190.386 139.047 190.616 138.846 190.866 138.638C191.116 138.431 191.423 138.341 191.787 138.367C191.727 138.162 191.725 138.007 191.783 137.901C193.627 136.912 195.322 135.723 196.869 134.332C198.429 132.983 199.983 131.39 201.532 129.554C201.672 129.424 201.76 129.42 201.796 129.543C201.803 129.719 201.86 129.836 201.966 129.893C202.447 129.262 202.948 128.625 203.47 127.982C203.964 127.391 204.477 126.795 205.011 126.193C204.948 125.677 204.954 125.32 205.029 125.12C205.18 125.031 205.268 125.027 205.292 125.109C205.287 125.244 205.338 125.34 205.444 125.398C205.605 125.039 205.813 124.688 206.068 124.346C206.323 124.004 206.552 123.648 206.754 123.277C206.968 122.947 207.149 122.582 207.298 122.182C207.406 121.794 207.382 121.334 207.225 120.802C207.417 120.701 207.587 120.673 207.734 120.719C207.84 120.777 207.989 120.755 208.182 120.654C208.122 120.449 208.147 120.308 208.257 120.231C208.327 120.166 208.311 120.037 208.21 119.845C208.456 119.772 208.642 119.65 208.77 119.479C208.868 119.361 208.955 119.202 209.029 119.002C209.075 118.855 209.115 118.688 209.148 118.5C209.182 118.312 209.268 118.153 209.408 118.023C209.507 117.905 209.523 117.811 209.458 117.742C209.352 117.684 209.275 117.573 209.227 117.409C209.972 116.166 210.532 114.822 210.907 113.378C211.253 111.986 211.507 110.509 211.669 108.949C212.057 108.301 212.326 107.554 212.477 106.709C212.599 105.917 212.668 105.096 212.684 104.246C212.701 103.396 212.717 102.546 212.733 101.696C212.696 100.817 212.751 100.022 212.897 99.3119C212.579 95.6692 211.922 92.082 210.925 88.5505C209.887 85.031 208.613 81.6923 207.103 78.5344C205.541 75.3476 203.787 72.4174 201.842 69.7437C199.843 67.0412 197.737 64.7265 195.523 62.7994C193.689 60.8047 191.687 58.9931 189.516 57.3646C187.346 55.7362 185.109 54.2606 182.806 52.938C180.462 51.6275 178.061 50.423 175.602 49.3244C173.101 48.238 170.599 47.2189 168.094 46.2673C167.971 46.3035 167.912 46.2542 167.917 46.1193C167.91 45.9436 167.874 45.8208 167.808 45.751C167.387 45.8308 166.956 45.8022 166.515 45.6653C166.075 45.5284 165.648 45.365 165.236 45.1751C164.825 44.9851 164.398 44.8217 163.958 44.6848C163.505 44.507 163.015 44.4291 162.487 44.4511C162.34 44.4055 162.322 44.3441 162.433 44.267C162.491 44.161 162.446 44.0852 162.299 44.0395C159.337 43.0449 156.315 42.2237 153.232 41.5759C150.097 40.8992 147.072 40.1454 144.158 39.3144C142.973 39.219 141.75 39.0682 140.488 38.8621C139.214 38.615 137.946 38.3884 136.684 38.1823C135.422 37.9762 134.173 37.811 132.935 37.6867C131.656 37.5745 130.387 37.5706 129.128 37.6751C129.046 37.6992 128.993 37.6703 128.969 37.5885C128.933 37.4657 128.956 37.3923 129.038 37.3681C126.011 37.0598 122.863 36.7202 119.596 36.3494C116.328 35.9786 113.023 35.7078 109.681 35.5369C106.286 35.3372 102.892 35.2928 99.4993 35.4036C96.0538 35.4857 92.6928 35.8541 89.4162 36.5091C88.6649 36.3748 87.8702 36.32 87.0323 36.3447C86.1944 36.3694 85.3686 36.4351 84.5548 36.5416C83.6881 36.6193 82.8539 36.7319 82.0522 36.8794C81.2505 37.0268 80.5162 37.1767 79.8493 37.3288C79.6736 37.3362 79.588 37.2725 79.5928 37.1376C79.5566 37.0148 79.4855 36.9246 79.3795 36.8669C78.9125 37.0936 78.4214 37.2384 77.9062 37.3014C77.391 37.3644 76.8553 37.4334 76.2991 37.5085C75.7309 37.5426 75.1748 37.6177 74.6307 37.7336C74.0336 37.8208 73.4667 38.0102 72.93 38.3019C72.8287 38.1094 72.547 38.059 72.0847 38.1509C71.6104 38.2018 71.3216 38.3537 71.2182 38.6066C70.9486 38.5972 70.798 38.4636 70.7665 38.206C69.4449 38.5513 68.0233 38.8594 66.5017 39.1302C64.9393 39.4131 63.4214 39.7718 61.9481 40.2063C60.4749 40.6408 59.0908 41.2269 57.796 41.9646C56.5011 42.7024 55.44 43.7049 54.6126 44.972C54.3818 45.3959 54.257 45.8776 54.2381 46.4169C54.2192 46.9563 54.0679 47.4235 53.7841 47.8186C53.8591 48.3748 53.9654 48.8105 54.1029 49.1259C54.1994 49.4532 54.2936 49.8481 54.3855 50.3103C54.5854 50.3848 54.7708 50.4858 54.9419 50.6133C55.1129 50.7407 55.3128 50.8152 55.5416 50.8367C55.9094 49.9721 56.2288 48.9437 56.5 47.7516C56.7592 46.5186 57.1749 45.4396 57.7473 44.5146C58.0673 44.2422 58.4897 43.9398 59.0143 43.6071C59.4981 43.2865 60.0288 42.9743 60.6064 42.6705C61.1841 42.3666 61.7822 42.0568 62.4007 41.7409C62.9784 41.4371 63.5007 41.1719 63.9676 40.9452C64.2735 41.0774 64.6432 41.1241 65.0765 41.0852C65.4979 41.0054 65.9336 40.8992 66.3838 40.7664C66.793 40.6457 67.2287 40.5394 67.691 40.4476C68.1123 40.3678 68.4698 40.3736 68.7637 40.4649C68.9609 40.2287 69.1414 40.0865 69.3051 40.0383C69.4688 39.99 69.6446 39.9826 69.8324 40.0162C70.0082 40.0089 70.2104 40.0159 70.4392 40.0374C70.6679 40.0589 70.9051 40.0335 71.1506 39.961C71.1554 39.8262 71.1168 39.7709 71.0349 39.795C70.941 39.7782 70.9108 39.6759 70.9444 39.4881C71.2624 39.6612 71.6645 39.7428 72.1509 39.7328C72.6373 39.7228 72.9935 39.5732 73.2197 39.2841C73.4243 39.2238 73.5916 39.2634 73.7218 39.4029C73.8519 39.5425 74.0313 39.623 74.2601 39.6445C74.4862 39.3554 74.769 39.183 75.1085 39.1274C75.407 39.0838 75.7381 39.0752 76.1017 39.1014C76.4532 39.0867 76.8047 39.072 77.1563 39.0573C77.4957 39.0016 77.799 38.8232 78.066 38.5221C78.8389 38.4276 79.7321 38.3643 80.7458 38.3322C81.7185 38.3123 82.7262 38.2597 83.7687 38.1747C84.8112 38.0896 85.8272 37.9902 86.8168 37.8763C87.7942 37.7214 88.6597 37.4884 89.4131 37.1773C89.9887 37.3189 90.628 37.375 91.331 37.3456C91.9811 37.2873 92.6661 37.1965 93.3859 37.0732C94.1058 36.9499 94.8256 36.8265 95.5455 36.7032C96.2653 36.5799 96.9503 36.489 97.6003 36.4308C99.2714 36.5162 100.977 36.5691 102.718 36.5895C104.447 36.569 106.035 36.5232 107.482 36.4523C115.265 37.0485 122.887 37.7808 130.35 38.6493C137.759 39.4889 144.985 40.7609 152.026 42.4652C159.068 44.1696 165.88 46.4531 172.463 49.3159C179.005 52.1908 185.273 55.9472 191.267 60.585C191.356 60.7366 191.392 60.8594 191.375 60.9533C191.306 61.0184 191.289 61.1123 191.325 61.2351C191.559 61.1217 191.734 61.1144 191.852 61.213C191.958 61.2707 192.099 61.2959 192.275 61.2885C195.249 64.2817 198.061 67.6337 200.712 71.3445C203.364 75.0554 205.555 79.1688 207.288 83.6846C207.394 83.7423 207.52 83.7939 207.667 83.8396C207.802 83.8443 207.928 83.896 208.046 83.9946C207.902 84.2596 207.867 84.6701 207.942 85.2263C208.005 85.7415 208.148 86.3 208.37 86.9018C208.539 87.4747 208.749 88.0356 209 88.5844C209.238 89.0923 209.488 89.4858 209.748 89.7649C210.428 93.8793 210.774 97.6919 210.786 101.202C210.757 104.725 210.312 108.193 209.45 111.605C209.176 111.731 209.005 111.981 208.938 112.357C208.871 112.733 208.83 113.123 208.816 113.527C208.802 113.932 208.755 114.301 208.676 114.636C208.556 114.983 208.311 115.211 207.943 115.319C207.865 116.41 207.572 117.453 207.064 118.448C206.557 119.442 206.028 120.288 205.477 120.984C205.396 121.764 205.176 122.452 204.818 123.047C204.418 123.654 203.987 124.226 203.522 124.764C203.07 125.342 202.618 125.92 202.165 126.498C201.713 127.076 201.387 127.706 201.188 128.388C200.837 128.403 200.556 128.508 200.347 128.703C200.097 128.91 199.999 129.183 200.055 129.523C199.932 129.559 199.812 129.528 199.694 129.429C199.542 129.518 199.484 129.624 199.521 129.747C199.528 129.923 199.462 130.076 199.322 130.206C197.953 131.144 196.718 132.086 195.619 133.033C194.531 134.021 193.431 134.968 192.32 135.874C191.179 136.834 189.979 137.743 188.721 138.604C187.421 139.476 185.936 140.248 184.266 140.919C184.208 141.025 184.177 141.145 184.172 141.28C184.126 141.427 184.034 141.565 183.894 141.695C183.572 141.657 183.314 141.689 183.121 141.79C182.888 141.903 182.675 142.011 182.482 142.112C182.261 142.266 182.074 142.388 181.923 142.477C181.73 142.578 181.52 142.618 181.291 142.597C181.274 142.691 181.251 142.764 181.222 142.817C181.165 142.923 181.154 143.037 181.19 143.16C180.814 143.093 180.379 143.199 179.883 143.479C179.399 143.8 179.065 144.098 178.88 144.376C178.68 144.301 178.477 144.294 178.273 144.354C178.08 144.456 177.908 144.551 177.756 144.64C177.564 144.741 177.365 144.822 177.161 144.882C176.956 144.943 176.754 144.936 176.554 144.861C176.438 145.073 176.285 145.23 176.092 145.331C175.871 145.485 175.849 145.714 176.027 146.017C175.435 145.97 174.879 146.045 174.359 146.243C173.839 146.44 173.305 146.665 172.756 146.916C172.219 147.207 171.676 147.479 171.128 147.729C170.55 148.033 169.942 148.235 169.304 148.334C169.191 148.856 168.957 149.193 168.601 149.342C168.203 149.504 167.809 149.598 167.416 149.625C166.983 149.664 166.576 149.717 166.196 149.784C165.815 149.852 165.55 150.086 165.401 150.486C165.242 150.399 165.087 150.401 164.936 150.49C164.743 150.591 164.565 150.666 164.401 150.714C164.209 150.815 164.024 150.87 163.849 150.877C163.685 150.925 163.532 150.859 163.39 150.679C163.185 150.739 163.101 150.831 163.137 150.953C163.145 151.129 163.093 151.256 162.982 151.333C162.713 151.323 162.463 151.308 162.235 151.286C161.965 151.277 161.695 151.267 161.426 151.258C161.399 151.622 161.161 151.87 160.711 152.003C160.6 152.08 160.527 152.057 160.491 151.934C160.426 151.864 160.354 151.774 160.277 151.663C159.957 151.936 159.662 152.067 159.393 152.058C159.135 152.089 158.769 152.13 158.295 152.181C158.163 152.487 157.927 152.668 157.587 152.724C157.207 152.791 156.821 152.839 156.428 152.865C156.036 152.892 155.649 152.939 155.269 153.007C154.901 153.116 154.63 153.329 154.457 153.647C154.286 153.519 154.118 153.48 153.955 153.528C153.75 153.588 153.586 153.637 153.463 153.673C153.312 153.762 153.169 153.804 153.034 153.8C152.858 153.807 152.699 153.72 152.557 153.54C151.546 153.883 150.423 154.147 149.188 154.333C147.924 154.573 146.654 154.792 145.378 154.99C144.073 155.241 142.809 155.481 141.586 155.708C140.375 155.976 139.297 156.316 138.351 156.729C138.033 156.556 137.651 156.468 137.206 156.466C136.76 156.464 136.451 156.622 136.278 156.94C136.172 156.882 136.039 156.81 135.88 156.723C135.721 156.637 135.548 156.577 135.36 156.543C134.072 156.701 132.843 156.908 131.673 157.164C130.462 157.432 129.281 157.424 128.13 157.141C128.195 157.211 128.213 157.272 128.184 157.325C128.167 157.419 128.171 157.507 128.195 157.589C128.012 157.42 127.824 157.387 127.632 157.488C127.451 157.63 127.338 157.775 127.292 157.922C126.803 157.621 126.181 157.471 125.425 157.472C124.64 157.525 123.977 157.765 123.435 158.192C122.349 157.978 121.062 157.913 119.574 157.996C118.057 158.132 116.647 158.326 115.342 158.577C112.842 158.247 110.311 158.037 107.749 157.947C105.187 157.858 102.64 157.741 100.107 157.599C97.5447 157.509 95.0199 157.32 92.5324 157.03C90.057 156.782 87.6621 156.354 85.3478 155.746C86.1919 154.385 86.983 152.995 87.7212 151.576C88.4184 150.17 89.3192 148.925 90.4236 147.844C90.3391 147.557 90.269 147.244 90.2134 146.905C90.1289 146.618 90.0156 146.385 89.8734 146.204C89.0187 146.323 88.3183 146.663 87.7721 147.224C87.1971 147.839 86.6932 148.543 86.2604 149.338C85.8396 150.174 85.4393 151.004 85.0595 151.828C84.6918 152.692 84.2818 153.414 83.8295 153.992C83.3364 154.582 82.7768 154.947 82.1509 155.088C81.525 155.228 80.7434 154.991 79.8064 154.378C79.7749 154.12 79.7903 153.871 79.8527 153.63C79.9152 153.389 79.9776 153.149 80.04 152.908C80.1145 152.708 80.1625 152.493 80.184 152.265C80.2055 152.036 80.1391 151.811 79.9849 151.589C80.1097 151.108 80.2694 150.594 80.4641 150.047C80.6178 149.512 80.7185 148.949 80.7662 148.356C80.826 147.805 80.8123 147.231 80.7252 146.634C80.6501 146.077 80.4198 145.523 80.0341 144.969C79.7718 145.135 79.5756 145.149 79.4454 145.009C79.3274 144.911 79.1372 144.944 78.8749 145.111C78.7017 145.429 78.6021 145.77 78.5758 146.133C78.5208 146.55 78.4801 146.94 78.4539 147.303C78.4398 147.708 78.4196 148.092 78.3934 148.456C78.3672 148.819 78.288 149.154 78.1557 149.46C78.3583 149.845 78.4284 150.158 78.3659 150.399C78.2747 150.693 78.2424 151.036 78.2692 151.428ZM34.6578 88.6237L34.4122 88.6962L34.3579 88.512L34.6035 88.4396L34.6578 88.6237ZM33.2176 89.8492C33.0707 89.8036 33.0466 89.7217 33.1452 89.6036C33.1908 89.4567 33.2583 89.4591 33.3475 89.6107C33.2656 89.6349 33.2512 89.6614 33.3042 89.6902C33.3162 89.7311 33.2874 89.7841 33.2176 89.8492ZM29.1053 101.471C28.9751 101.332 28.9064 101.174 28.8991 100.998C28.9326 100.81 29.0842 100.721 29.3539 100.731C29.4914 101.046 29.4085 101.293 29.1053 101.471ZM28.8677 102.475C28.8797 102.516 28.8448 102.549 28.763 102.573C28.8763 102.806 28.8595 102.9 28.7126 102.855C28.5536 102.768 28.5704 102.674 28.763 102.573C28.7509 102.532 28.7858 102.5 28.8677 102.475C28.8482 102.259 28.8409 102.083 28.8456 101.948C28.7973 101.784 28.8755 101.672 29.0801 101.612C29.0345 101.759 29.0153 101.92 29.0227 102.096C29.0179 102.231 28.9663 102.357 28.8677 102.475ZM28.4538 104.466C28.2707 104.297 28.2308 104.087 28.3341 103.834C28.3845 103.552 28.5264 103.355 28.7599 103.241C28.9383 103.544 28.9433 103.788 28.7749 103.971C28.5944 104.113 28.4874 104.278 28.4538 104.466ZM27.7779 108.735C27.7827 108.601 27.7585 108.519 27.7055 108.49C27.6116 108.473 27.573 108.418 27.5898 108.324L27.8354 108.251C27.8837 108.415 27.8645 108.576 27.7779 108.735ZM80.9783 156.768C80.9642 157.172 80.8092 157.552 80.5133 157.906C80.2174 158.26 79.9419 158.608 79.6869 158.95C79.3911 159.305 79.1565 159.641 78.9834 159.959C78.7694 160.289 78.7371 160.632 78.8867 160.988C78.7398 160.942 78.6314 160.952 78.5616 161.017C78.4919 161.082 78.4486 161.162 78.4318 161.256C78.415 161.35 78.3922 161.423 78.3633 161.476C78.3056 161.582 78.2238 161.606 78.1178 161.548C78.2426 161.067 78.3397 160.415 78.4089 159.594C78.4492 158.826 78.5547 158.128 78.7252 157.499C78.8547 156.883 79.0795 156.438 79.3996 156.166C79.7317 155.935 80.2579 156.135 80.9783 156.768ZM77.1795 157.688C77.4062 158.155 77.4678 158.515 77.3645 158.768C77.2611 159.021 77.0843 159.251 76.8341 159.458C76.7858 159.294 76.7147 159.204 76.6208 159.187C76.4859 159.183 76.4293 159.066 76.4508 158.837C76.5205 158.772 76.5819 158.754 76.6349 158.783C76.6879 158.812 76.7553 158.814 76.8372 158.79C76.7768 158.585 76.749 158.416 76.7537 158.281C76.7705 158.187 76.6994 158.097 76.5404 158.01C76.7209 157.868 76.8256 157.77 76.8544 157.717C76.8424 157.676 76.9507 157.667 77.1795 157.688ZM77.769 158.782C77.6268 158.602 77.5869 158.391 77.6493 158.15C77.7238 157.95 77.8466 157.914 78.0177 158.041C77.907 158.119 77.9022 158.253 78.0035 158.446C78.0639 158.651 77.9857 158.763 77.769 158.782ZM76.2374 46.8015C76.2159 47.0303 76.3568 47.0554 76.6601 46.877C76.9224 46.7107 77.1186 46.6973 77.2487 46.8369C77.1595 46.6852 77.1559 46.5974 77.2377 46.5732C77.3196 46.5491 77.3954 46.5045 77.4651 46.4394C77.441 46.3576 77.4085 46.3227 77.3676 46.3347C77.2857 46.3589 77.2569 46.4119 77.281 46.4937C77.1918 46.3421 77.1063 46.2784 77.0244 46.3025C76.8896 46.2978 76.7933 46.3484 76.7356 46.4544C76.6249 46.5315 76.5407 46.6231 76.483 46.7291C76.4132 46.7941 76.3313 46.8183 76.2374 46.8015ZM73.3775 47.5115C73.2788 47.6296 73.2127 47.7825 73.1792 47.9704C73.1456 48.1582 73.0855 48.3316 72.999 48.4906C73.2734 48.3652 73.4743 48.2169 73.6018 48.0459C73.7172 47.8339 73.6424 47.6558 73.3775 47.5115ZM75.0278 47.225C75.1097 47.2008 75.1446 47.1683 75.1325 47.1274C75.0795 47.0985 75.0446 47.131 75.0278 47.225ZM75.0278 47.225C74.9171 47.3021 74.8269 47.3732 74.7571 47.4383C74.6343 47.4745 74.6115 47.5479 74.6886 47.6586C74.484 47.719 74.3431 47.6938 74.266 47.5831C74.1359 47.4435 73.9926 47.4858 73.8363 47.7098C73.8725 47.8326 73.9436 47.9228 74.0496 47.9805C74.1026 48.0094 74.1821 48.0527 74.2881 48.1104C74.3458 48.0044 74.5034 47.9357 74.761 47.9042C74.9657 47.8438 75.1173 47.7546 75.2159 47.6366C75.1556 47.4319 75.0929 47.2947 75.0278 47.225ZM72.9769 47.9633C72.9118 47.8935 72.8649 47.8851 72.836 47.9381C72.8072 47.9911 72.8048 48.0585 72.829 48.1404C72.841 48.1813 72.8675 48.1957 72.9084 48.1837C72.9494 48.1716 72.9722 48.0981 72.9769 47.9633ZM72.2041 48.0578C72.0115 48.159 71.8864 48.2627 71.8287 48.3687C71.73 48.4867 71.6314 48.6048 71.5328 48.7228C71.1812 48.7375 70.7287 48.9377 70.1752 49.3234C69.6096 49.6681 69.2933 50.0283 69.2261 50.404C69.6978 50.0425 70.1792 49.7893 70.6703 49.6445C71.1204 49.5117 71.479 49.2947 71.7461 48.9935C71.9869 49.056 72.1543 49.0956 72.2482 49.1124C72.33 49.0882 72.5202 49.0544 72.8188 49.0108C72.7873 48.7532 72.7125 48.5751 72.5944 48.4764C72.4355 48.3899 72.3053 48.2503 72.2041 48.0578ZM67.6049 51.0156C66.8179 51.5146 66.1597 51.9978 65.6304 52.4654C65.0601 52.9449 64.3959 53.4077 63.6377 53.8537C63.6619 53.9356 63.686 54.0174 63.7101 54.0993C63.6813 54.1523 63.6585 54.2257 63.6417 54.3196C63.2204 54.3994 62.8786 54.5225 62.6162 54.6888C62.313 54.8672 62.0627 55.0745 61.8655 55.3106C61.6152 55.5178 61.371 55.7456 61.1328 55.9937C60.8946 56.2419 60.6359 56.4961 60.3568 56.7564C60.4145 56.6504 60.4639 56.5914 60.5048 56.5793C60.5987 56.5961 60.6698 56.6863 60.7181 56.85C60.7543 56.9728 60.8687 56.9836 61.0612 56.8823C61.1357 56.6824 61.2921 56.4583 61.5302 56.2101C61.7154 55.9331 61.9536 55.6849 62.2448 55.4656C62.536 55.2463 62.8392 55.0679 63.1546 54.9304C63.4169 54.7641 63.6708 54.6447 63.9164 54.5723C63.9741 54.4663 63.9728 54.311 63.9124 54.1064C64.7235 53.6892 65.4901 53.1962 66.212 52.6274C66.8809 52.0298 67.6582 51.4225 68.5438 50.8054C68.4331 50.8825 68.2875 50.9922 68.107 51.1344C67.9266 51.2766 67.7592 51.237 67.6049 51.0156ZM71.6493 50.023C71.601 49.8593 71.5541 49.8509 71.5084 49.9978C71.4219 50.1568 71.4688 50.1651 71.6493 50.023ZM69.4796 51.2634C69.275 51.3237 69.2642 51.4381 69.4473 51.6065L69.6929 51.5341C69.6687 51.4523 69.6362 51.4174 69.5953 51.4294C69.5423 51.4006 69.5037 51.3452 69.4796 51.2634ZM59.3928 57.1075C59.6168 57.2638 59.6795 57.401 59.5809 57.519C59.4293 57.6083 59.3041 57.7119 59.2055 57.8299C59.3235 57.9286 59.4993 57.9212 59.7328 57.8079C59.9253 57.7066 60.0505 57.603 60.1082 57.497C59.978 57.3574 59.8805 57.2528 59.8154 57.183C59.7383 57.0723 59.5974 57.0471 59.3928 57.1075ZM58.3249 58.6902C58.3899 58.76 58.5043 58.7707 58.668 58.7224C58.7787 58.6453 58.8461 58.6477 58.8703 58.7295C59.0051 58.7342 59.0544 58.6752 59.0182 58.5524C58.982 58.4296 59.0048 58.3562 59.0867 58.3321C58.9036 58.1636 58.7892 58.1529 58.7435 58.2998C58.6449 58.4179 58.4933 58.5071 58.2887 58.5674L58.3249 58.6902ZM58.3249 58.6902C58.243 58.7143 58.2081 58.7469 58.2202 58.7878C58.302 58.7636 58.3369 58.7311 58.3249 58.6902ZM58.2202 58.7878C58.0686 58.877 58.0662 58.9444 58.2131 58.99C58.36 59.0357 58.3624 58.9683 58.2202 58.7878ZM57.6174 59.2325C57.5476 59.2975 57.4718 59.3421 57.3899 59.3663C57.2672 59.4025 57.1769 59.4736 57.1192 59.5796C57.2903 59.7071 57.4925 59.7141 57.726 59.6008L57.6174 59.2325ZM56.7549 60.1541C56.6609 60.1373 56.62 60.1494 56.6321 60.1903C56.6321 60.1903 56.6586 60.2047 56.7116 60.2336C56.7525 60.2215 56.7995 60.2299 56.8524 60.2588C56.8934 60.2467 56.8608 60.2118 56.7549 60.1541ZM55.7656 60.646C55.5851 60.7882 55.5046 60.9677 55.524 61.1844C55.5434 61.4011 55.4099 61.5516 55.1234 61.6361C55.2294 61.6938 55.3438 61.7046 55.4666 61.6684C55.5484 61.6442 55.6363 61.6406 55.7302 61.6573C55.6699 61.4527 55.7155 61.3058 55.8672 61.2166C55.9658 61.0986 55.9319 60.9084 55.7656 60.646ZM55.1164 61.8384C54.9983 61.7398 54.896 61.7699 54.8094 61.9289C54.7229 62.0879 54.7531 62.1902 54.9 62.2358C55.0348 62.2406 55.0841 62.1815 55.0479 62.0588C55.0117 61.936 55.0345 61.8625 55.1164 61.8384ZM54.6363 62.2469C54.4606 62.2542 54.3029 62.323 54.1633 62.4531C54.1875 62.5349 54.3079 62.5661 54.5246 62.5467C54.7292 62.4864 54.7664 62.3864 54.6363 62.2469ZM52.7775 63.8627C52.7198 63.9687 52.6765 64.0482 52.6476 64.1012C52.5779 64.1662 52.5611 64.2601 52.5973 64.3829C52.6671 64.3179 52.7633 64.2672 52.8861 64.231C52.9559 64.1659 52.9197 64.0432 52.7775 63.8627ZM51.7348 65.3045L51.5506 65.3589C51.558 65.5346 51.6844 65.5863 51.9299 65.5139C51.9058 65.432 51.8733 65.3971 51.8324 65.4092C51.7914 65.4213 51.7589 65.3864 51.7348 65.3045ZM50.511 66.1325C50.4097 65.94 50.3893 65.946 50.4496 66.1506C50.51 66.3553 50.5304 66.3492 50.511 66.1325ZM50.8471 66.3671C50.6592 66.3335 50.5834 66.3781 50.6196 66.5009C50.6028 66.5948 50.5535 66.6538 50.4717 66.6779C50.5488 66.7887 50.6632 66.7994 50.8148 66.7102C50.9135 66.5921 50.9242 66.4778 50.8471 66.3671ZM49.9625 66.7614C49.6519 66.764 49.5677 66.8556 49.7099 67.0361L50.0168 66.9455L49.9625 66.7614ZM48.9087 67.9396C48.8605 67.7759 48.8135 67.7675 48.7679 67.9144C48.6813 68.0734 48.7283 68.0818 48.9087 67.9396ZM47.5913 69.1288C47.755 69.0806 47.7946 68.9132 47.7102 68.6267C47.6404 68.6918 47.6008 68.8592 47.5913 69.1288ZM48.7829 68.644C48.6936 68.4924 48.6792 68.5189 48.7396 68.7235C48.7878 68.8872 48.8023 68.8607 48.7829 68.644ZM47.5913 69.1288C47.5095 69.153 47.4951 69.1795 47.5481 69.2083C47.5601 69.2493 47.5746 69.2228 47.5913 69.1288ZM46.8516 70.0143L46.6674 70.0686L46.7217 70.2527L46.9059 70.1984L46.8516 70.0143ZM47.3718 70.1945C47.2947 70.0838 47.2622 70.0489 47.2742 70.0898C47.2742 70.0898 47.3068 70.1247 47.3718 70.1945C47.4248 70.2233 47.4573 70.2582 47.4694 70.2991C47.4815 70.3401 47.449 70.3052 47.3718 70.1945ZM45.4075 70.7738C45.2653 70.5933 45.2039 70.6114 45.2233 70.8281C45.2307 71.0039 45.292 70.9858 45.4075 70.7738ZM44.9778 70.9005L44.7936 70.9548L44.8479 71.139L45.0321 71.0847L44.9778 70.9005ZM46.4188 70.8092C46.296 70.8454 46.2527 70.9249 46.2889 71.0476C46.3131 71.1295 46.3493 71.2523 46.3976 71.416C46.619 71.2617 46.6995 71.0822 46.6391 70.8776C46.5164 70.9138 46.4429 70.891 46.4188 70.8092ZM45.7475 71.4742C45.6583 71.3226 45.5909 71.3202 45.5452 71.4671C45.4875 71.5731 45.5549 71.5755 45.7475 71.4742ZM45.6216 72.1786C45.7947 71.8606 45.9776 71.651 46.1701 71.5498C46.0279 71.3693 45.8787 71.3911 45.7223 71.6151C45.5539 71.7982 45.5203 71.9861 45.6216 72.1786ZM42.2943 75.8289C42.6747 75.7612 42.8961 75.607 42.9585 75.3661C42.98 75.1374 43.1484 74.9543 43.4637 74.8168C43.4564 74.641 43.4058 74.5447 43.3118 74.5279C43.2059 74.4702 43.1431 74.333 43.1237 74.1163C43.427 73.9379 43.6413 73.9859 43.7667 74.2603C43.8391 74.5059 43.8586 74.7226 43.825 74.9104C44.0343 74.7152 44.2641 74.514 44.5144 74.3067C44.7237 74.1115 44.8475 73.8526 44.8858 73.5299C44.7751 73.6071 44.6849 73.6782 44.6151 73.7432C44.5044 73.8204 44.3672 73.8831 44.2035 73.9313C44.2638 74.136 44.241 74.2094 44.135 74.1517C43.9881 74.1061 44.0109 74.0326 44.2035 73.9313C44.321 73.2739 44.5807 72.797 44.9826 72.5005L44.8739 72.1322C44.5465 72.2288 44.2986 72.3686 44.1302 72.5517C43.9498 72.6939 43.9548 72.9371 44.1452 73.2813C43.9936 73.3705 43.8997 73.3537 43.8635 73.2309C43.8273 73.1082 43.7189 73.1179 43.5384 73.2601C43.1513 73.9081 42.7134 74.4598 42.225 74.9152C41.6956 75.3827 41.2783 75.9284 40.973 76.5523C41.1366 76.504 41.2571 76.5352 41.3342 76.6459C41.4113 76.7566 41.5378 76.8083 41.7135 76.8009C41.6123 76.6084 41.5905 76.4591 41.6482 76.3531C41.7059 76.2471 41.7046 76.0918 41.6442 75.8872C41.8321 75.9208 41.9344 75.8906 41.9512 75.7967C41.927 75.7148 41.9824 75.6763 42.1172 75.681C42.1991 75.6568 42.2581 75.7062 42.2943 75.8289ZM42.8499 74.9978C42.7801 75.0629 42.7308 75.1219 42.7019 75.1749C42.6322 75.24 42.5564 75.2846 42.4745 75.3087C42.3323 75.1282 42.337 74.9934 42.4887 74.9042C42.6282 74.7741 42.7486 74.8053 42.8499 74.9978ZM42.8341 73.1342C42.9521 73.2328 43.0521 73.2701 43.1339 73.2459C43.1628 73.1929 43.253 73.1218 43.4046 73.0326C43.2745 72.8931 43.1746 72.8558 43.1048 72.9209C43.035 72.9859 42.9448 73.057 42.8341 73.1342ZM44.9826 72.5005C44.9778 72.6354 45.0429 72.7051 45.1778 72.7099C45.2596 72.6857 45.3126 72.7146 45.3367 72.7964C45.4474 72.7193 45.4642 72.6254 45.3871 72.5147C45.257 72.3751 45.1221 72.3704 44.9826 72.5005ZM45.5319 73.0058C45.5199 72.9648 45.4994 72.9709 45.4705 73.0239C45.4417 73.0769 45.4622 73.0708 45.5319 73.0058ZM42.2943 75.8289C42.2125 75.8531 42.198 75.8796 42.251 75.9084C42.2631 75.9493 42.2775 75.9228 42.2943 75.8289ZM41.0092 76.675C40.8743 76.6703 40.7925 76.6945 40.7636 76.7474C40.7348 76.8004 40.6854 76.8595 40.6157 76.9245C40.6519 77.0473 40.7518 77.0846 40.9155 77.0363C41.0792 76.988 41.1104 76.8676 41.0092 76.675ZM42.0748 76.8946C41.9232 76.9838 41.8835 77.1511 41.956 77.3967C42.1438 77.4302 42.2196 77.3856 42.1834 77.2629C42.0942 77.1112 42.058 76.9885 42.0748 76.8946ZM39.7752 78.3735C39.792 78.2795 39.7246 78.2772 39.5729 78.3664C39.4093 78.4147 39.3864 78.4881 39.5045 78.5868L39.75 78.5143C39.685 78.4446 39.6934 78.3976 39.7752 78.3735ZM38.9127 79.2951C38.855 79.4011 38.8117 79.4806 38.7829 79.5336C38.7131 79.5986 38.7167 79.6865 38.7939 79.7972C38.9576 79.7489 38.9972 79.5816 38.9127 79.2951ZM38.5483 79.8696C38.2451 80.048 38.0538 80.3046 37.9746 80.6394C37.8954 80.9741 37.7367 81.2656 37.4985 81.5137C37.7635 81.658 37.9849 81.5037 38.1628 81.0509C38.2997 80.6102 38.4282 80.2164 38.5483 79.8696ZM39.0111 80.5338C38.8689 80.3534 38.8075 80.3715 38.827 80.5882C38.8464 80.8048 38.9078 80.7867 39.0111 80.5338ZM38.1707 81.9828C38.06 82.0599 37.9023 82.1286 37.6977 82.189C37.4931 82.2493 37.3149 82.3241 37.1633 82.4133C36.9708 82.5146 36.8312 82.6447 36.7446 82.8037C36.6051 82.9338 36.5511 83.1277 36.5825 83.3853C36.6403 83.2793 36.704 83.1938 36.7738 83.1287C36.8315 83.0227 36.9013 82.9577 36.9831 82.9335C37.236 83.0369 37.2783 83.1801 37.1099 83.3632C36.8884 83.5175 36.7489 83.6476 36.6912 83.7536C36.6093 83.7778 36.5563 83.7489 36.5322 83.6671C36.5081 83.5852 36.4839 83.5034 36.4598 83.4215C35.9136 83.9829 35.512 84.6574 35.255 85.445C35.5126 85.4135 35.6642 85.3243 35.7098 85.1774C35.7025 85.0016 35.7951 84.8631 35.9876 84.7618C36.1755 84.7954 36.2261 84.8917 36.1395 85.0506C36.0409 85.1687 35.9507 85.2398 35.8688 85.2639C36.1385 85.2734 36.3431 85.213 36.4827 85.0829C36.6102 84.9118 36.7316 84.7203 36.847 84.5084C36.9215 84.3085 36.996 84.1085 37.0705 83.9086C37.133 83.6678 37.2339 83.4823 37.3735 83.3522C37.4144 83.3401 37.4771 83.4773 37.5616 83.7638C37.6073 83.6169 37.6264 83.4556 37.619 83.2798C37.5708 83.1161 37.5694 82.9608 37.6151 82.8139C37.6077 82.6381 37.6473 82.4707 37.7339 82.3118C37.7795 82.1648 37.9251 82.0552 38.1707 81.9828ZM36.2403 84.4871C36.2235 84.5811 36.209 84.6075 36.197 84.5666C36.144 84.5378 36.1584 84.5113 36.2403 84.4871C36.257 84.3932 36.2919 84.3607 36.3449 84.3895C36.357 84.4305 36.3221 84.463 36.2403 84.4871ZM37.3774 83.8181C37.3197 83.9241 37.262 84.0301 37.2043 84.1361C37.1057 84.2541 37.0396 84.4071 37.006 84.5949C37.1577 84.5057 37.2972 84.3756 37.4247 84.2045C37.5113 84.0456 37.4955 83.9168 37.3774 83.8181ZM34.5506 85.3191C34.5144 85.1963 34.5083 85.1759 34.5325 85.2577C34.5445 85.2986 34.5831 85.354 34.6482 85.4238C34.6603 85.4647 34.6723 85.5056 34.6844 85.5465C34.6844 85.5465 34.6398 85.4707 34.5506 85.3191ZM36.7463 85.0719C36.91 85.0236 36.9184 84.9766 36.7715 84.931C36.6125 84.8444 36.6041 84.8914 36.7463 85.0719ZM34.7639 85.5898C34.5713 85.6911 34.5052 85.844 34.5656 86.0486C34.5729 86.2244 34.5863 86.4206 34.6057 86.6373C34.8104 86.577 34.9643 86.4204 35.0677 86.1675C35.159 85.8736 35.0577 85.6811 34.7639 85.5898ZM36.7463 85.0719C36.6645 85.096 36.6501 85.1225 36.7031 85.1513C36.7151 85.1923 36.7296 85.1658 36.7463 85.0719ZM35.898 85.589C35.6766 85.7432 35.6165 85.9166 35.7178 86.1092C35.7755 86.0032 35.8392 85.9177 35.909 85.8526C35.9378 85.7996 35.9342 85.7117 35.898 85.589ZM36.5913 85.4512C36.5336 85.5572 36.4759 85.6632 36.4182 85.7692C36.3075 85.8463 36.2028 85.9439 36.1042 86.0619C36.3282 86.2183 36.4775 86.1965 36.552 85.9966C36.6265 85.7967 36.6396 85.6149 36.5913 85.4512ZM36.1947 86.3689C36.0646 86.2293 35.9562 86.239 35.8697 86.398C35.7422 86.5691 35.6701 86.7015 35.6533 86.7955C35.8243 86.923 35.9531 86.9072 36.0397 86.7482C36.0733 86.5604 36.1249 86.4339 36.1947 86.3689ZM33.2734 87.097C33.1747 87.2151 33.1495 87.3559 33.1978 87.5196C33.2797 87.4955 33.335 87.4569 33.3639 87.4039C33.3518 87.363 33.3867 87.3305 33.4685 87.3063C33.4565 87.2654 33.43 87.251 33.3891 87.2631C33.3361 87.2342 33.2975 87.1789 33.2734 87.097ZM32.5551 92.5801C32.4323 92.6164 32.3733 92.567 32.378 92.4322C32.3706 92.2564 32.32 92.1602 32.2261 92.1434C32.0456 92.2856 32.0204 92.4264 32.1506 92.566C32.2277 92.6767 32.2964 92.8344 32.3568 93.039C32.5614 92.9786 32.6275 92.8257 32.5551 92.5801ZM32.8762 92.0851C32.7943 92.1092 32.7594 92.1418 32.7715 92.1827C32.8533 92.1586 32.8882 92.126 32.8762 92.0851ZM32.7715 92.1827C32.5669 92.243 32.4947 92.3755 32.5551 92.5801C32.6946 92.45 32.7668 92.3175 32.7715 92.1827ZM30.2148 97.5408C30.21 97.6756 30.2342 97.7575 30.2872 97.7863C30.3402 97.8152 30.3992 97.8645 30.4643 97.9343C30.587 97.8981 30.6243 97.7981 30.576 97.6344C30.5277 97.4707 30.4073 97.4395 30.2148 97.5408Z" fill="black"/>
</svg>
