<svg width="25" height="24" viewBox="0 0 25 24" fill="none" xmlns="http://www.w3.org/2000/svg">
<path fill-rule="evenodd" clip-rule="evenodd" d="M21.125 6.375C20.45 6.7125 19.775 6.825 18.9875 6.9375C19.775 6.4875 20.3375 5.8125 20.5625 4.9125C19.8875 5.3625 19.1 5.5875 18.2 5.8125C17.525 5.1375 16.5125 4.6875 15.5 4.6875C13.5875 4.6875 11.9 6.375 11.9 8.4C11.9 8.7375 11.9 8.9625 12.0125 9.1875C8.975 9.075 6.1625 7.6125 4.3625 5.3625C4.025 5.925 3.9125 6.4875 3.9125 7.275C3.9125 8.5125 4.5875 9.6375 5.6 10.3125C5.0375 10.3125 4.475 10.0875 3.9125 9.8625C3.9125 11.6625 5.15 13.125 6.8375 13.4625C6.5 13.575 6.1625 13.575 5.825 13.575C5.6 13.575 5.375 13.575 5.15 13.4625C5.6 14.925 6.95 16.05 8.6375 16.05C7.4 17.0625 5.825 17.625 4.025 17.625C3.6875 17.625 3.4625 17.625 3.125 17.625C4.8125 18.6375 6.725 19.3125 8.75 19.3125C15.5 19.3125 19.2125 13.6875 19.2125 8.85C19.2125 8.7375 19.2125 8.5125 19.2125 8.4C20 7.8375 20.675 7.1625 21.125 6.375Z" fill="#01A7E7"/>
</svg>
