<svg width="17" height="17" viewBox="0 0 17 17" fill="none" xmlns="http://www.w3.org/2000/svg">
<path d="M8.5 8.5C8.5 7.38376 8.28014 6.27846 7.85298 5.24719C7.42581 4.21592 6.79971 3.27889 6.01041 2.48959C5.22111 1.70029 4.28408 1.07419 3.25281 0.647024C2.22154 0.219859 1.11624 -4.87922e-08 0 0L5.79017e-07 8.5H8.5Z" fill="black"/>
<path fill-rule="evenodd" clip-rule="evenodd" d="M8.50195 17C10.7563 17 12.9183 16.1045 14.5124 14.5104C15.7372 13.2856 16.5496 11.7255 16.8603 10.0458H14.2972C13.6571 10.0458 13.1382 9.52683 13.1382 8.88668C13.1382 8.24653 13.6571 7.72759 14.2972 7.72759H16.9668C16.9189 7.20212 16.8223 6.68483 16.6798 6.18198H11.98C11.3399 6.18198 10.8209 5.66303 10.8209 5.02289C10.8209 4.38274 11.3399 3.8638 11.98 3.8638H15.6263C15.3062 3.37191 14.9337 2.91091 14.5124 2.48959C12.9183 0.895534 10.7563 0 8.50196 0L8.50195 8.5V17Z" fill="black"/>
<path d="M8.5 17C8.5 15.8838 8.28014 14.7785 7.85298 13.7472C7.42581 12.7159 6.79971 11.7789 6.01041 10.9896C5.22111 10.2003 4.28408 9.57419 3.25281 9.14702C2.22154 8.71986 1.11624 8.5 0 8.5L5.79017e-07 17H8.5Z" fill="black"/>
</svg>
